PathFileType	4	(X/Y/Z)	markers_results_mono.trc
DataRate	CameraRate	NumFrames	NumMarkers	Units	OrigDataRate	OrigDataStartFrame	OrigNumFrames
12.500000	12.500000	17	22	m	12.500000	377	3015
Frame#	Time	Nose			Neck			LShoulder			RShoulder			LElbow			RElbow			LWrist			RWrist			LHip			RHip			LKnee			RKnee			LAnkle			RAnkle			LEye			REye			LThumb			LIndex			LPinky			RThumb			RIndex			RPinky
		X1	Y1	Z1	X2	Y2	Z2	X3	Y3	Z3	X4	Y4	Z4	X5	Y5	Z5	X6	Y6	Z6	X7	Y7	Z7	X8	Y8	Z8	X9	Y9	Z9	X10	Y10	Z10	X11	Y11	Z11	X12	Y12	Z12	X13	Y13	Z13	X14	Y14	Z14	X15	Y15	Z15	X16	Y16	Z16	X17	Y17	Z17	X18	Y18	Z18	X19	Y19	Z19	X20	Y20	Z20	X21	Y21	Z21	X22	Y22	Z22

377	30.080000	-0.023349	-0.093163	0.105107	-0.024617	-0.104032	0.124734	-0.028906	-0.087402	0.125077	-0.020328	-0.120663	0.124391	-0.021088	-0.007543	0.029955	-0.003498	-0.032162	0.048403	0.055072	-0.019176	0.054043	0.054595	-0.021518	0.037837	-0.029757	0.023643	0.052973	-0.021026	0.039906	0.079281	-0.089322	0.132231	0.019791	-0.076069	0.106160	0.006769	-0.274198	0.096946	-0.100786	-0.136805	0.100614	-0.127704	-0.023349	-0.093163	0.105107	-0.023349	-0.093163	0.105107	0.055072	-0.019176	0.054043	0.055072	-0.019176	0.054043	0.055072	-0.019176	0.054043	0.054595	-0.021518	0.037837	0.054595	-0.021518	0.037837	0.054595	-0.021518	0.037837
378	30.160000	-0.017893	-0.076252	0.130473	-0.020435	-0.066580	0.136845	-0.025142	-0.051423	0.141216	-0.015728	-0.081737	0.132473	-0.018616	0.044551	0.031242	0.000226	0.017121	0.036806	0.057182	0.025443	0.056496	0.053553	0.029107	0.013359	-0.030457	0.051094	0.064148	-0.019704	0.055179	0.093773	-0.091421	0.138773	0.029362	-0.081390	0.122888	0.004852	-0.276112	0.094909	-0.096742	-0.146137	0.101918	-0.137361	-0.017893	-0.076252	0.130473	-0.017893	-0.076252	0.130473	0.057182	0.025443	0.056496	0.057182	0.025443	0.056496	0.057182	0.025443	0.056496	0.053553	0.029107	0.013359	0.053553	0.029107	0.013359	0.053553	0.029107	0.013359
379	30.240000	-0.017128	-0.051686	0.111949	-0.024351	-0.036981	0.120405	-0.028406	-0.018929	0.120145	-0.020296	-0.055032	0.120664	-0.020464	0.060631	0.025025	-0.000397	0.030383	0.047794	0.055102	0.051488	0.051359	0.052054	0.031152	0.041037	-0.026397	0.076315	0.054616	-0.016377	0.097959	0.082098	-0.082177	0.186938	0.016617	-0.074009	0.172124	0.002904	-0.273561	0.162913	-0.110617	-0.139257	0.153341	-0.129907	-0.017128	-0.051686	0.111949	-0.017128	-0.051686	0.111949	0.055102	0.051488	0.051359	0.055102	0.051488	0.051359	0.055102	0.051488	0.051359	0.052054	0.031152	0.041037	0.052054	0.031152	0.041037	0.052054	0.031152	0.041037
380	30.320000	-0.031317	0.011396	0.041994	-0.034456	-0.015807	0.082007	-0.037515	0.008671	0.072261	-0.031398	-0.040285	0.091753	-0.027277	0.046562	0.014290	-0.005666	0.018077	0.072310	0.055775	0.051011	0.040420	0.053617	0.003456	0.087193	-0.023311	0.110643	0.026273	-0.015492	0.165908	0.053948	-0.082739	0.285585	-0.007632	-0.065285	0.245279	0.002534	-0.285811	0.275835	-0.132155	-0.125405	0.246892	-0.118622	-0.031317	0.011396	0.041994	-0.031317	0.011396	0.041994	0.055775	0.051011	0.040420	0.055775	0.051011	0.040420	0.055775	0.051011	0.040420	0.053617	0.003456	0.087193	0.053617	0.003456	0.087193	0.053617	0.003456	0.087193
381	30.400000	-0.038787	0.053411	0.061783	-0.026561	0.014998	0.103814	-0.031209	0.035810	0.103659	-0.021914	-0.005814	0.103969	-0.023850	0.106269	0.019802	-0.001011	0.078672	0.044866	0.072271	0.070855	0.044847	0.061429	0.065096	0.009516	-0.031708	0.146736	0.043384	-0.018087	0.166188	0.087973	-0.114726	0.287456	0.019885	-0.087035	0.238380	0.004268	-0.316443	0.217213	-0.109935	-0.149621	0.216672	-0.141501	-0.038787	0.053411	0.061783	-0.038787	0.053411	0.061783	0.072271	0.070855	0.044847	0.072271	0.070855	0.044847	0.072271	0.070855	0.044847	0.061429	0.065096	0.009516	0.061429	0.065096	0.009516	0.061429	0.065096	0.009516
382	30.480000	0.001499	-0.038924	0.295465	0.013805	0.084986	0.231202	0.004907	0.079634	0.269573	0.022704	0.090338	0.192830	0.004580	0.318353	0.049806	0.026828	0.280788	-0.067431	0.101239	0.177591	0.074326	0.073185	0.284054	-0.230175	-0.045293	0.166811	0.149769	-0.014583	0.045027	0.222708	-0.146266	0.077403	0.119247	-0.135379	0.099317	0.013967	-0.318539	-0.088310	-0.039145	-0.221480	-0.021012	-0.192553	0.001499	-0.038924	0.295465	0.001499	-0.038924	0.295465	0.101239	0.177591	0.074326	0.101239	0.177591	0.074326	0.101239	0.177591	0.074326	0.073185	0.284054	-0.230175	0.073185	0.284054	-0.230175	0.073185	0.284054	-0.230175
383	30.560000	0.081274	-0.258876	0.615545	0.062122	0.189937	0.369441	0.050311	0.140421	0.450638	0.073933	0.239453	0.288245	0.045141	0.573358	0.084240	0.065888	0.529285	-0.199523	0.121874	0.357387	0.101604	0.086054	0.550547	-0.461342	-0.044105	0.172464	0.277562	0.000171	-0.099208	0.368950	-0.127071	-0.203774	0.214196	-0.158037	-0.079041	0.057680	-0.250531	-0.344778	-0.005626	-0.278381	-0.260696	-0.209954	0.082630	-0.236058	0.649702	0.082699	-0.228604	0.602694	0.116689	0.264127	0.017463	0.116515	0.257262	0.043604	0.117110	0.262767	0.093490	0.081140	0.463485	-0.551176	0.082297	0.489130	-0.569824	0.083024	0.497763	-0.523696
384	30.640000	0.127762	-0.428311	0.785000	0.091489	0.290371	0.407376	0.077247	0.190761	0.520057	0.105732	0.389981	0.294696	0.070722	0.683916	0.118655	0.094014	0.673340	-0.290303	0.128435	0.514933	0.106595	0.107919	0.741723	-0.578317	-0.031943	0.179491	0.339288	0.007648	-0.157401	0.436443	-0.093174	-0.335618	0.253635	-0.141984	-0.227505	0.169917	-0.175472	-0.285561	-0.073940	-0.283483	-0.274792	-0.187022	0.129964	-0.390734	0.836443	0.130954	-0.359313	0.747194	0.124502	0.445111	0.035646	0.123991	0.432934	0.050435	0.124381	0.434984	0.095260	0.099866	0.584506	-0.613168	0.099568	0.587365	-0.681647	0.101182	0.611416	-0.616910
385	30.720000	0.097251	-0.401422	0.794527	0.115626	0.372675	0.379353	0.090933	0.226381	0.533508	0.140319	0.518970	0.225198	0.080397	0.635844	0.184643	0.113034	0.697287	-0.371029	0.138914	0.583927	0.121199	0.149012	0.892310	-0.709280	-0.039341	0.173193	0.372217	-0.014056	-0.176084	0.470528	-0.135218	-0.337683	0.298729	-0.150229	-0.401759	0.330448	-0.210074	-0.087255	-0.185691	-0.290955	-0.152257	-0.209607	0.098965	-0.379415	0.890625	0.102186	-0.299937	0.776058	0.137419	0.558425	0.086183	0.137332	0.555611	0.094451	0.137173	0.549952	0.113552	0.138804	0.688046	-0.715011	0.138375	0.687480	-0.777253	0.144489	0.809040	-0.767868
386	30.800000	0.042668	-0.253680	0.817813	0.152521	0.459088	0.374152	0.108963	0.286600	0.583979	0.196080	0.631575	0.164325	0.095814	0.569377	0.280370	0.137708	0.676573	-0.459164	0.159029	0.578735	0.170352	0.194618	1.043147	-0.915066	-0.070730	0.114542	0.462404	-0.051457	-0.234977	0.539148	-0.235193	-0.366547	0.392955	-0.211471	-0.574959	0.434000	-0.334891	-0.044656	-0.240499	-0.333216	-0.111098	-0.305307	0.046400	-0.191113	0.913601	0.049180	-0.114109	0.749678	0.156546	0.536019	0.114936	0.156271	0.528811	0.128082	0.156232	0.524518	0.155155	0.180307	0.737836	-0.776319	0.173030	0.609035	-0.910577	0.186066	0.881602	-0.994051
387	30.880000	0.038783	-0.175370	0.887610	0.178568	0.547406	0.368945	0.124322	0.389730	0.602924	0.232815	0.705082	0.134966	0.117374	0.554821	0.332612	0.157686	0.633379	-0.478384	0.167288	0.545968	0.202365	0.206369	1.095244	-0.998916	-0.088454	0.016596	0.571522	-0.067912	-0.266203	0.580773	-0.266684	-0.402512	0.454888	-0.253711	-0.566011	0.394277	-0.378967	-0.101978	-0.219636	-0.339408	-0.146200	-0.364354	0.042890	-0.104208	0.975109	0.045666	-0.028958	0.824204	0.164014	0.487900	0.142814	0.163783	0.481837	0.153872	0.163864	0.478941	0.188957	0.193854	0.814408	-0.770419	0.184129	0.635119	-0.894278	0.183780	0.647515	-1.044447
388	30.960000	0.079938	-0.231923	0.868957	0.165311	0.600444	0.287853	0.121977	0.493512	0.483611	0.208644	0.707377	0.092094	0.119157	0.545749	0.286359	0.147201	0.560961	-0.386367	0.149109	0.518850	0.155113	0.167941	0.973837	-0.820298	-0.070043	-0.042088	0.580091	-0.053688	-0.153872	0.492134	-0.188998	-0.302139	0.397930	-0.212021	-0.344985	0.270621	-0.263097	-0.050947	-0.166612	-0.254594	-0.119434	-0.298114	0.083476	-0.169193	0.933289	0.084943	-0.122768	0.801987	0.146123	0.466117	0.099175	0.145932	0.460444	0.113338	0.146202	0.461652	0.145943	0.153656	0.661684	-0.624472	0.150520	0.602883	-0.656777	0.147634	0.562074	-0.789620
389	31.040000	0.107789	-0.338836	0.731561	0.127344	0.595318	0.155858	0.107226	0.542570	0.284973	0.147463	0.648066	0.026743	0.093095	0.512548	0.183548	0.110647	0.500781	-0.269445	0.122383	0.507130	0.059176	0.113822	0.773476	-0.530384	-0.039754	-0.012605	0.469806	-0.033013	0.068039	0.296116	-0.099319	-0.078400	0.263126	-0.123749	-0.152848	0.205581	-0.116802	0.080878	-0.108891	-0.140193	-0.026245	-0.170129	0.111638	-0.265691	0.763694	0.112703	-0.241597	0.742799	0.119888	0.463410	0.009848	0.118963	0.443197	0.022453	0.119035	0.441244	0.048820	0.106737	0.614249	-0.399085	0.104570	0.572514	-0.412898	0.103716	0.566218	-0.496880
390	31.120000	0.107307	-0.440367	0.634493	0.100531	0.526618	0.088880	0.096350	0.505219	0.174578	0.104712	0.548016	0.003181	0.068548	0.478466	0.109300	0.086065	0.486838	-0.231506	0.117779	0.494088	-0.000319	0.094123	0.634400	-0.364976	-0.027089	0.056869	0.349830	-0.026204	0.232825	0.133149	-0.071681	0.075273	0.167198	-0.069834	-0.170076	0.239978	-0.072741	0.132163	-0.062026	-0.086260	0.028024	-0.104183	0.109134	-0.407083	0.660860	0.109503	-0.393319	0.611637	0.115541	0.455567	-0.049977	0.114562	0.434034	-0.035472	0.114545	0.429479	-0.002788	0.091331	0.569826	-0.299113	0.090527	0.554057	-0.302076	0.090030	0.549278	-0.342387
391	31.200000	0.112312	-0.538453	0.685656	0.103093	0.406961	0.151118	0.099614	0.392227	0.228294	0.106571	0.421695	0.073942	0.075252	0.460118	0.106654	0.097663	0.494133	-0.270025	0.140735	0.474244	0.001853	0.117094	0.620407	-0.409618	-0.031935	0.096353	0.315197	-0.031280	0.243575	0.112394	-0.083032	0.045222	0.169188	-0.083902	-0.276326	0.281407	-0.099274	0.095896	-0.057044	-0.107537	0.011212	-0.145731	0.114268	-0.501490	0.703584	0.114410	-0.495240	0.677183	0.138573	0.437477	-0.049650	0.137740	0.418778	-0.034424	0.137802	0.415243	0.002608	0.114468	0.558187	-0.336197	0.113699	0.542458	-0.334011	0.112810	0.530575	-0.380129
392	31.280000	0.130101	-0.573017	0.747215	0.125607	0.272564	0.267323	0.113181	0.253163	0.347046	0.138032	0.291964	0.187600	0.101390	0.427095	0.157183	0.123321	0.463796	-0.295085	0.159663	0.452072	0.017049	0.140718	0.684344	-0.573841	-0.040226	0.093811	0.340219	-0.035752	0.160385	0.201770	-0.104849	-0.058419	0.212261	-0.137420	-0.273856	0.252701	-0.121489	0.065887	-0.100195	-0.159769	-0.028368	-0.237888	0.131467	-0.548940	0.773243	0.130912	-0.555242	0.735710	0.156448	0.398054	-0.064571	0.155296	0.371600	-0.038982	0.155467	0.368238	0.013601	0.138265	0.612759	-0.401066	0.134836	0.543207	-0.395733	0.132898	0.517379	-0.497012
393	31.360000	0.122062	-0.451045	0.607398	0.133030	0.156716	0.298578	0.112071	0.138111	0.366401	0.153989	0.175321	0.230755	0.104232	0.335288	0.197128	0.119777	0.355257	-0.229229	0.142342	0.393270	0.007395	0.125662	0.666963	-0.648829	-0.044088	0.081190	0.321672	-0.030241	0.093151	0.267737	-0.139512	-0.055801	0.196694	-0.174081	-0.145490	0.175359	-0.156789	0.062795	-0.142483	-0.198026	-0.046794	-0.282034	0.123318	-0.429140	0.633122	0.123431	-0.422276	0.597494	0.137786	0.317591	-0.114970	0.136358	0.284134	-0.078025	0.136550	0.277582	0.002590	0.119244	0.506994	-0.408236	0.117683	0.472654	-0.384963	0.114602	0.428951	-0.525670
